<svg width="68" height="48" viewBox="0 0 68 48" fill="none" xmlns="http://www.w3.org/2000/svg">
<rect width="68" height="48" fill="#0A0A0A" fill-opacity="0.05"/>
<g clip-path="url(#clip0_764_5204)">
<rect width="21" height="15" transform="translate(16 16.5)" fill="white"/>
<path fill-rule="evenodd" clip-rule="evenodd" d="M16 16.5H25V23.5H16V16.5Z" fill="#1A47B8"/>
<path fill-rule="evenodd" clip-rule="evenodd" d="M25 16.5V17.5H37V16.5H25ZM25 18.5V19.5H37V18.5H25ZM25 20.5V21.5H37V20.5H25ZM25 22.5V23.5H37V22.5H25ZM16 24.5V25.5H37V24.5H16ZM16 26.5V27.5H37V26.5H16ZM16 28.5V29.5H37V28.5H16ZM16 30.5V31.5H37V30.5H16Z" fill="#F93939"/>
<path fill-rule="evenodd" clip-rule="evenodd" d="M17 17.5V18.5H18V17.5H17ZM19 17.5V18.5H20V17.5H19ZM21 17.5V18.5H22V17.5H21ZM23 17.5V18.5H24V17.5H23ZM22 18.5V19.5H23V18.5H22ZM20 18.5V19.5H21V18.5H20ZM18 18.5V19.5H19V18.5H18ZM17 19.5V20.5H18V19.5H17ZM19 19.5V20.5H20V19.5H19ZM21 19.5V20.5H22V19.5H21ZM23 19.5V20.5H24V19.5H23ZM17 21.5V22.5H18V21.5H17ZM19 21.5V22.5H20V21.5H19ZM21 21.5V22.5H22V21.5H21ZM23 21.5V22.5H24V21.5H23ZM22 20.5V21.5H23V20.5H22ZM20 20.5V21.5H21V20.5H20ZM18 20.5V21.5H19V20.5H18Z" fill="white"/>
</g>
<path d="M45.944 25.296V24H52.728V25.296H45.944ZM48.68 21.088H50.008V28.208H48.68V21.088ZM56.4399 30V18.896H57.9279V30H56.4399ZM54.1679 20.24V18.896H57.7679V20.24H54.1679Z" fill="#0A0A0A" fill-opacity="0.4"/>
<defs>
<clipPath id="clip0_764_5204">
<rect width="21" height="15" fill="white" transform="translate(16 16.5)"/>
</clipPath>
</defs>
</svg>
