<svg width="70" height="30" viewBox="0 0 70 30" fill="none" xmlns="http://www.w3.org/2000/svg">
<path d="M0.304 23V0.504H4.656V23H0.304ZM3.504 23V19.128H14.96V23H3.504ZM24.5263 23.32C22.9689 23.32 21.5609 22.968 20.3023 22.264C19.0649 21.5387 18.0729 20.568 17.3263 19.352C16.6009 18.1147 16.2383 16.7387 16.2383 15.224C16.2383 13.7093 16.6009 12.3547 17.3263 11.16C18.0516 9.944 19.0436 8.984 20.3023 8.28C21.5609 7.55467 22.9583 7.192 24.4943 7.192C26.0729 7.192 27.4809 7.55467 28.7183 8.28C29.9769 8.984 30.9689 9.944 31.6943 11.16C32.4196 12.3547 32.7823 13.7093 32.7823 15.224C32.7823 16.7387 32.4196 18.1147 31.6943 19.352C30.9689 20.568 29.9769 21.5387 28.7183 22.264C27.4809 22.968 26.0836 23.32 24.5263 23.32ZM24.4943 19.416C25.2836 19.416 25.9769 19.2453 26.5743 18.904C27.1929 18.5413 27.6623 18.0507 27.9823 17.432C28.3236 16.792 28.4943 16.0667 28.4943 15.256C28.4943 14.4453 28.3236 13.7307 27.9823 13.112C27.6409 12.4933 27.1716 12.0133 26.5743 11.672C25.9769 11.3093 25.2836 11.128 24.4943 11.128C23.7263 11.128 23.0436 11.3093 22.4463 11.672C21.8489 12.0133 21.3796 12.4933 21.0383 13.112C20.6969 13.7307 20.5263 14.4453 20.5263 15.256C20.5263 16.0667 20.6969 16.792 21.0383 17.432C21.3796 18.0507 21.8489 18.5413 22.4463 18.904C23.0436 19.2453 23.7263 19.416 24.4943 19.416ZM41.945 29.848C40.3023 29.848 38.8517 29.5493 37.593 28.952C36.3343 28.376 35.3317 27.5547 34.585 26.488L37.241 23.832C37.8383 24.536 38.4997 25.0693 39.225 25.432C39.9717 25.816 40.8677 26.008 41.913 26.008C43.2143 26.008 44.2383 25.6773 44.985 25.016C45.753 24.3547 46.137 23.4373 46.137 22.264V18.392L46.841 15L46.169 11.608V7.544H50.329V22.2C50.329 23.736 49.9663 25.0693 49.241 26.2C48.537 27.352 47.5557 28.248 46.297 28.888C45.0383 29.528 43.5877 29.848 41.945 29.848ZM41.753 22.584C40.3663 22.584 39.1183 22.2533 38.009 21.592C36.8997 20.9093 36.025 19.9813 35.385 18.808C34.7663 17.6347 34.457 16.3227 34.457 14.872C34.457 13.4213 34.7663 12.12 35.385 10.968C36.025 9.816 36.8997 8.90933 38.009 8.248C39.1183 7.56533 40.3663 7.224 41.753 7.224C42.905 7.224 43.9183 7.448 44.793 7.896C45.689 8.344 46.393 8.96267 46.905 9.752C47.417 10.52 47.6943 11.4267 47.737 12.472V17.336C47.6943 18.36 47.4063 19.2773 46.873 20.088C46.361 20.8773 45.657 21.496 44.761 21.944C43.8863 22.3707 42.8837 22.584 41.753 22.584ZM42.585 18.776C43.353 18.776 44.0143 18.616 44.569 18.296C45.145 17.9547 45.593 17.496 45.913 16.92C46.233 16.3227 46.393 15.6507 46.393 14.904C46.393 14.136 46.233 13.464 45.913 12.888C45.593 12.312 45.145 11.864 44.569 11.544C44.0143 11.2027 43.353 11.032 42.585 11.032C41.817 11.032 41.145 11.2027 40.569 11.544C39.993 11.864 39.545 12.3227 39.225 12.92C38.905 13.496 38.745 14.1573 38.745 14.904C38.745 15.6293 38.905 16.2907 39.225 16.888C39.545 17.464 39.993 17.9227 40.569 18.264C41.145 18.6053 41.817 18.776 42.585 18.776ZM61.2763 23.32C59.7189 23.32 58.3109 22.968 57.0523 22.264C55.8149 21.5387 54.8229 20.568 54.0763 19.352C53.3509 18.1147 52.9883 16.7387 52.9883 15.224C52.9883 13.7093 53.3509 12.3547 54.0763 11.16C54.8016 9.944 55.7936 8.984 57.0523 8.28C58.3109 7.55467 59.7083 7.192 61.2443 7.192C62.8229 7.192 64.2309 7.55467 65.4683 8.28C66.7269 8.984 67.7189 9.944 68.4443 11.16C69.1696 12.3547 69.5323 13.7093 69.5323 15.224C69.5323 16.7387 69.1696 18.1147 68.4443 19.352C67.7189 20.568 66.7269 21.5387 65.4683 22.264C64.2309 22.968 62.8336 23.32 61.2763 23.32ZM61.2443 19.416C62.0336 19.416 62.7269 19.2453 63.3243 18.904C63.9429 18.5413 64.4123 18.0507 64.7323 17.432C65.0736 16.792 65.2443 16.0667 65.2443 15.256C65.2443 14.4453 65.0736 13.7307 64.7323 13.112C64.3909 12.4933 63.9216 12.0133 63.3243 11.672C62.7269 11.3093 62.0336 11.128 61.2443 11.128C60.4763 11.128 59.7936 11.3093 59.1963 11.672C58.5989 12.0133 58.1296 12.4933 57.7883 13.112C57.4469 13.7307 57.2763 14.4453 57.2763 15.256C57.2763 16.0667 57.4469 16.792 57.7883 17.432C58.1296 18.0507 58.5989 18.5413 59.1963 18.904C59.7936 19.2453 60.4763 19.416 61.2443 19.416Z" fill="#603AF8"/>
</svg>
