<svg width="20" height="17" viewBox="0 0 20 17" fill="none" xmlns="http://www.w3.org/2000/svg">
<path d="M16.5 16.8333L13 13.375C12.5139 13.5278 12.0243 13.6424 11.5312 13.7188C11.0382 13.7951 10.5278 13.8333 9.99998 13.8333C7.90276 13.8333 6.0347 13.2535 4.39581 12.0938C2.75692 10.934 1.56942 9.43057 0.833313 7.58334C1.12498 6.84723 1.49304 6.1632 1.93748 5.53126C2.38192 4.89932 2.88887 4.33334 3.45831 3.83334L1.16665 1.50001L2.33331 0.333344L17.6666 15.6667L16.5 16.8333ZM9.99998 11.3333C10.1528 11.3333 10.2951 11.3264 10.4271 11.3125C10.559 11.2986 10.7014 11.2708 10.8541 11.2292L6.35415 6.72918C6.31248 6.88195 6.2847 7.02432 6.27081 7.15626C6.25692 7.2882 6.24998 7.43057 6.24998 7.58334C6.24998 8.62501 6.61456 9.51043 7.34373 10.2396C8.0729 10.9688 8.95831 11.3333 9.99998 11.3333ZM16.0833 11.7083L13.4375 9.08334C13.5347 8.84723 13.6111 8.60765 13.6666 8.36459C13.7222 8.12154 13.75 7.86112 13.75 7.58334C13.75 6.54168 13.3854 5.65626 12.6562 4.92709C11.9271 4.19793 11.0416 3.83334 9.99998 3.83334C9.7222 3.83334 9.46178 3.86112 9.21873 3.91668C8.97567 3.97223 8.73609 4.05557 8.49998 4.16668L6.37498 2.04168C6.94442 1.80557 7.52776 1.62848 8.12498 1.51043C8.7222 1.39237 9.3472 1.33334 9.99998 1.33334C12.0972 1.33334 13.9653 1.9132 15.6041 3.07293C17.243 4.23265 18.4305 5.73612 19.1666 7.58334C18.8472 8.40279 18.4271 9.16321 17.9062 9.86459C17.3854 10.566 16.7778 11.1806 16.0833 11.7083ZM12.2291 7.87501L9.72915 5.37501C10.118 5.30557 10.4757 5.33682 10.8021 5.46876C11.1285 5.6007 11.4097 5.79168 11.6458 6.04168C11.8819 6.29168 12.0521 6.57987 12.1562 6.90626C12.2604 7.23265 12.2847 7.55557 12.2291 7.87501Z" fill="#0A0A0A" fill-opacity="0.4"/>
</svg>
