<svg width="40" height="40" viewBox="0 0 40 40" fill="none" xmlns="http://www.w3.org/2000/svg">
<g clip-path="url(#clip0_465_45985)">
<path d="M19.8584 13.9695C19.7937 13.7961 18.562 12.7376 18.25 12.4701C18.2031 12.4296 18.1449 12.4037 18.0835 12.3956C17.6212 12.3291 15.5877 12.0778 14.6711 12.5576C13.6334 13.1023 12.7443 13.1525 12.8187 12.8543C12.893 12.5576 14.8182 11.2447 15.6588 11.0712C16.4024 10.9172 18.25 10.3953 18.6622 10.277C18.7204 10.2607 18.7721 10.2283 18.8125 10.1846C18.9726 10.0095 19.3233 9.53617 18.7689 9.23791C18.1223 8.89103 14.9443 10.0176 14.5386 10.1635C14.5111 10.1732 14.4836 10.1878 14.4594 10.204C14.2315 10.3661 12.9706 11.2641 12.2303 11.8185C11.9328 12.0406 11.5497 11.6742 11.7615 11.3679C11.768 11.3598 11.7728 11.3517 11.7793 11.3435C12.3062 10.5947 13.5558 9.4146 13.8257 9.16335C13.8613 9.13093 13.8888 9.09041 13.9066 9.04664C14.0084 8.79215 14.3091 7.92331 13.6398 8.00598C13.5736 8.01409 13.5121 8.04164 13.462 8.08541C12.9997 8.49065 10.3196 10.8881 9.28345 12.83C8.14707 14.9599 7.45522 17.2374 7.45522 17.8323C7.45522 18.3526 6.0295 19.3657 5.29886 19.4775C5.14367 19.5019 5.02244 19.6234 5.01274 19.7807C4.95778 20.8327 4.90444 24.2335 6.41745 25.467C6.52737 25.5562 6.68094 25.5626 6.80055 25.4865C7.49725 25.0456 9.97853 23.5867 11.4544 24.2205C13.1145 24.9337 16.5527 23.4992 16.821 23.3857C16.8324 23.3808 16.8437 23.3776 16.855 23.3727C17.0263 23.3209 18.431 22.8589 18.6153 21.7437C18.7091 21.1812 18.8917 20.8294 19.0566 20.6138C19.1843 20.4485 19.1779 20.2199 19.0437 20.0579C18.9984 20.0027 18.9596 19.9363 18.9354 19.8601C18.8804 19.6818 19.0308 19.5408 19.1762 19.4516C19.3217 19.3625 19.4009 19.1987 19.3945 19.0302C19.3718 18.4677 19.312 17.3298 19.1827 17.2358C19.034 17.1288 17.5129 15.7007 17.0926 15.3052C17.0231 15.2403 16.9326 15.2095 16.8388 15.2177C16.252 15.2711 14.0747 15.4819 13.4782 15.6748C12.8025 15.892 14.1555 14.3602 15.2773 13.7118C15.3274 13.6826 15.3856 13.668 15.4438 13.6696L17.702 13.6923C17.7796 13.6923 17.8556 13.7215 17.9138 13.7734C18.2161 14.0376 19.1989 14.8627 19.5529 14.7589C19.9732 14.6357 19.923 14.164 19.8487 13.9663L19.8584 13.9695ZM13.934 17.4757L15.3404 16.8273C15.3743 16.8111 15.4115 16.8013 15.4487 16.7981C15.6265 16.7835 16.1518 16.7722 16.3765 17.1401C16.6481 17.5859 17.7101 17.8339 17.9817 17.5859C18.2338 17.3557 17.8524 18.526 18.326 19.2587C18.4003 19.3738 18.3858 19.5262 18.3001 19.6348C18.1967 19.7645 18.0269 19.9557 17.7602 20.2118C17.3884 20.5685 17.2074 21.0531 17.1266 21.3449C17.0861 21.4924 16.952 21.5945 16.7984 21.5897C16.2731 21.5735 15.1108 21.554 14.5063 21.6772C14.3915 21.6999 14.2735 21.6577 14.1975 21.5686C13.8791 21.2006 13.0401 20.2605 12.324 19.7434C12.1915 19.6477 12.1494 19.4727 12.2222 19.3252C12.3143 19.1371 12.4194 18.8243 12.455 18.3299C12.5148 17.5032 13.5024 17.4935 13.7837 17.5065C13.8354 17.5097 13.8872 17.4983 13.9356 17.4773L13.934 17.4757Z" fill="white"/>
<path d="M20.0138 26.0328C20.0784 26.2063 21.3102 27.2648 21.6221 27.5322C21.669 27.5728 21.7272 27.5987 21.7886 27.6068C22.2509 27.6733 24.2845 27.9245 25.201 27.4447C26.2388 26.9001 27.1278 26.8498 27.0535 27.1481C26.9791 27.4447 25.0539 28.7577 24.2133 28.9311C23.4698 29.0851 21.6221 29.6071 21.2099 29.7254C21.1518 29.7416 21.1 29.774 21.0596 29.8178C20.8996 29.9929 20.5488 30.4662 21.1033 30.7644C21.7498 31.1113 24.9278 29.9847 25.3336 29.8389C25.361 29.8291 25.3885 29.8145 25.4128 29.7983C25.6407 29.6362 26.9015 28.7382 27.6419 28.1839C27.9393 27.9618 28.3224 28.3281 28.1106 28.6345C28.1042 28.6426 28.0993 28.6507 28.0929 28.6588C27.5659 29.4077 26.3164 30.5877 26.0464 30.839C26.0109 30.8714 25.9834 30.9119 25.9656 30.9557C25.8638 31.2102 25.5631 32.079 26.2323 31.9964C26.2986 31.9883 26.36 31.9607 26.4101 31.9169C26.8724 31.5117 29.5525 29.1143 30.5887 27.1724C31.7251 25.0424 32.4169 22.765 32.4169 22.1701C32.4169 21.6497 33.8426 20.6366 34.5733 20.5248C34.7285 20.5005 34.8497 20.3789 34.8594 20.2217C34.9144 19.1697 34.9677 15.7689 33.4547 14.5353C33.3448 14.4462 33.1912 14.4397 33.0716 14.5159C32.3749 14.9568 29.8936 16.4157 28.4178 15.7819C26.7577 15.0686 23.3194 16.5032 23.0511 16.6167C23.0398 16.6215 23.0285 16.6248 23.0172 16.6296C22.8458 16.6815 21.4411 17.1435 21.2568 18.2587C21.1631 18.8212 20.9804 19.1729 20.8155 19.3885C20.6878 19.5538 20.6943 19.7824 20.8285 19.9445C20.8737 19.9996 20.9125 20.0661 20.9368 20.1423C20.9917 20.3206 20.8414 20.4616 20.6959 20.5507C20.5504 20.6399 20.4712 20.8036 20.4777 20.9722C20.5003 21.5347 20.5601 22.6726 20.6894 22.7666C20.8382 22.8736 22.3593 24.3016 22.7795 24.6972C22.849 24.762 22.9396 24.7928 23.0333 24.7847C23.6201 24.7312 25.7975 24.5205 26.394 24.3276C27.0696 24.1104 25.7167 25.6422 24.5948 26.2906C24.5447 26.3197 24.4865 26.3343 24.4283 26.3327L22.1701 26.31C22.0925 26.31 22.0166 26.2808 21.9584 26.229C21.6561 25.9648 20.6733 25.1397 20.3193 25.2434C19.899 25.3666 19.9491 25.8383 20.0235 26.0361L20.0138 26.0328ZM25.9381 22.5267L24.5318 23.1751C24.4978 23.1913 24.4607 23.201 24.4235 23.2043C24.2457 23.2188 23.7203 23.2302 23.4956 22.8622C23.2241 22.4165 22.162 22.1685 21.8905 22.4165C21.6383 22.6466 22.0198 21.4763 21.5462 20.7436C21.4718 20.6285 21.4864 20.4762 21.572 20.3676C21.6755 20.2379 21.8452 20.0466 22.1119 19.7905C22.4837 19.4339 22.6648 18.9492 22.7456 18.6574C22.786 18.5099 22.9202 18.4078 23.0737 18.4127C23.5991 18.4289 24.7613 18.4483 25.3659 18.3252C25.4807 18.3025 25.5987 18.3446 25.6746 18.4338C25.9931 18.8017 26.832 19.7419 27.5481 20.259C27.6807 20.3546 27.7227 20.5297 27.65 20.6772C27.5578 20.8652 27.4527 21.178 27.4172 21.6724C27.3574 22.4991 26.3697 22.5089 26.0884 22.4959C26.0367 22.4927 25.985 22.504 25.9365 22.5251L25.9381 22.5267Z" fill="white"/>
</g>
<rect x="0.5" y="0.5" width="39" height="39" rx="3.5" stroke="white"/>
<defs>
<clipPath id="clip0_465_45985">
<rect width="29.8723" height="24" fill="white" transform="translate(5 8)"/>
</clipPath>
</defs>
</svg>
